<mxfile host="app.diagrams.net" modified="2023-09-18T03:34:05.392Z" agent="Mozilla/5.0 (Windows NT 10.0; Win64; x64) AppleWebKit/537.36 (KHTML, like Gecko) Chrome/100.0.4896.127 Safari/537.36 Edg/100.0.1185.50" version="21.7.5" etag="YkferL59nGtaWd-CpQQQ" type="github">
  <diagram name="Page-1" id="f1L4uQ_vUWo0s7XC1RXG">
    <mxGraphModel>
      <root>
        <mxCell id="0" />
        <mxCell id="1" parent="0" />
      </root>
    </mxGraphModel>
  </diagram>
</mxfile>
